<svg width="33" height="33" viewBox="0 0 33 33" fill="none" xmlns="http://www.w3.org/2000/svg">
<path d="M8.94002 13.75C8.63339 13.75 8.33914 13.7968 8.04627 13.8394C8.14114 13.5204 8.23877 13.1959 8.39552 12.9044C8.55227 12.4809 8.79702 12.1138 9.04039 11.7439C9.24389 11.3438 9.60277 11.0729 9.86677 10.7305C10.1431 10.3978 10.5199 10.1764 10.8183 9.90001C11.1111 9.61126 11.4948 9.46688 11.8 9.26338C12.119 9.08051 12.3968 8.87838 12.6938 8.78213L13.4349 8.47688L14.0866 8.20601L13.4198 5.54126L12.5989 5.73926C12.3363 5.80526 12.0159 5.88226 11.6515 5.97438C11.2789 6.04313 10.8815 6.23151 10.4388 6.40338C10.0015 6.59863 9.49552 6.73063 9.02527 7.04413C8.55227 7.34388 8.00639 7.59413 7.52514 7.99563C7.05902 8.40951 6.49664 8.76838 6.08139 9.29501C5.62764 9.78726 5.17939 10.3043 4.83152 10.8928C4.42864 11.4538 4.15502 12.0698 3.86627 12.6789C3.60502 13.288 3.39464 13.9109 3.22277 14.5159C2.89689 15.7286 2.75114 16.8809 2.69477 17.8668C2.64802 18.854 2.67552 19.6749 2.73327 20.2689C2.75389 20.5494 2.79239 20.8216 2.81989 21.01L2.85427 21.241L2.89002 21.2328C3.13458 22.3752 3.69756 23.425 4.51384 24.2608C5.33013 25.0965 6.36635 25.6842 7.50265 25.9556C8.63895 26.2271 9.82888 26.1713 10.9348 25.7948C12.0407 25.4182 13.0175 24.7363 13.752 23.8278C14.4865 22.9193 14.9488 21.8214 15.0855 20.6612C15.2221 19.5009 15.0275 18.3257 14.5241 17.2714C14.0207 16.2172 13.2291 15.3269 12.2409 14.7038C11.2527 14.0806 10.1083 13.7499 8.94002 13.75ZM24.065 13.75C23.7584 13.75 23.4641 13.7968 23.1713 13.8394C23.2661 13.5204 23.3638 13.1959 23.5205 12.9044C23.6773 12.4809 23.922 12.1138 24.1654 11.7439C24.3689 11.3438 24.7278 11.0729 24.9918 10.7305C25.2681 10.3978 25.6449 10.1764 25.9433 9.90001C26.2361 9.61126 26.6198 9.46688 26.925 9.26338C27.244 9.08051 27.5218 8.87838 27.8188 8.78213L28.5599 8.47688L29.2116 8.20601L28.5448 5.54126L27.7239 5.73926C27.4613 5.80526 27.1409 5.88226 26.7765 5.97438C26.4039 6.04313 26.0065 6.23151 25.5638 6.40338C25.1279 6.60001 24.6205 6.73063 24.1503 7.04551C23.6773 7.34526 23.1314 7.59551 22.6501 7.99701C22.184 8.41088 21.6216 8.76976 21.2064 9.29501C20.7526 9.78726 20.3044 10.3043 19.9565 10.8928C19.5536 11.4538 19.28 12.0698 18.9913 12.6789C18.73 13.288 18.5196 13.9109 18.3478 14.5159C18.0219 15.7286 17.8761 16.8809 17.8198 17.8668C17.773 18.854 17.8005 19.6749 17.8583 20.2689C17.8789 20.5494 17.9174 20.8216 17.9449 21.01L17.9793 21.241L18.015 21.2328C18.2596 22.3752 18.8226 23.425 19.6388 24.2608C20.4551 25.0965 21.4914 25.6842 22.6276 25.9556C23.7639 26.2271 24.9539 26.1713 26.0598 25.7948C27.1657 25.4182 28.1424 24.7363 28.877 23.8278C29.6115 22.9193 30.0738 21.8214 30.2105 20.6612C30.3471 19.5009 30.1525 18.3257 29.6491 17.2714C29.1457 16.2172 28.3541 15.3269 27.3659 14.7038C26.3777 14.0806 25.2333 13.7499 24.065 13.75Z" fill="#FBA9BA"/>
</svg>
